<svg width="768" height="397" viewBox="0 0 768 397" fill="none" xmlns="http://www.w3.org/2000/svg">
<g clip-path="url(#clip0_1022_391)">
<rect width="768" height="397" fill="white"/>
<path d="M362.119 286.138L17 397V-2H1465V397L936 366.5L362.119 286.138Z" fill="#CAE0FF" fill-opacity="0.81"/>
<path d="M339.119 267.138L-6 378V-21H1442V378L870 361L339.119 267.138Z" fill="#004AAD" stroke="black"/>
<path d="M97.081 -5.6239L122.903 124.482L-15.7691 71.8693L97.081 -5.6239Z" fill="#035ED8" fill-opacity="0.29"/>
<path d="M696.081 1.3761L721.903 131.482L583.231 78.8693L696.081 1.3761Z" fill="#035ED8" fill-opacity="0.29"/>
<path d="M147.988 253.054L89.8391 314.661L61.3376 245.286L147.988 253.054Z" fill="#035ED8" fill-opacity="0.29"/>
<path d="M700.988 221.054L642.839 282.661L614.338 213.286L700.988 221.054Z" fill="#035ED8" fill-opacity="0.29"/>
<path d="M268.765 65.8213L259.697 113.994L221.374 84.8589L268.765 65.8213Z" fill="#035ED8" fill-opacity="0.29"/>
<path d="M388.024 170.751L356.844 211.047L336.386 161.249L388.024 170.751Z" fill="#035ED8" fill-opacity="0.29"/>
</g>
<defs>
<clipPath id="clip0_1022_391">
<rect width="768" height="397" fill="white"/>
</clipPath>
</defs>
</svg>
