<svg width="100%" height="212" viewBox="0 0 375 212" fill="none" xmlns="http://www.w3.org/2000/svg">
<path d="M123.22 165.863L391.458 201.004L369.014 -27.656L-8.55389 -13.2849L7.30959 202.037L123.22 165.863Z" fill="#A2C9FF" fill-opacity="0.57"/>
<path d="M117.862 157.097L383.232 199.885L377.64 -29.1763L-0.587891 -25.6374V189.912L117.862 157.097Z" fill="#004AAD"/>
<path d="M405.664 -8.19599L298.637 20.1979L304.361 -43.8386L405.664 -8.19599Z" fill="#035ED8" fill-opacity="0.29"/>
<path d="M205.415 -6.01227L196.947 23.4919L161.158 5.64762L205.415 -6.01227Z" fill="#035ED8" fill-opacity="0.29"/>
<path d="M236.735 126.85L207.618 151.53L188.512 121.03L236.735 126.85Z" fill="#035ED8" fill-opacity="0.29"/>
<path d="M73.5154 127.647L19.2124 165.379L-7.40416 122.89L73.5154 127.647Z" fill="#035ED8" fill-opacity="0.29"/>
<path d="M412.426 124.693L344.409 175.661L307.042 116.01L412.426 124.693Z" fill="#035ED8" fill-opacity="0.29"/>
<path d="M259.398 30.2583L308.136 59.8223L243.783 71.5357L259.398 30.2583Z" fill="#035ED8" fill-opacity="0.29"/>
<path d="M97.9308 -26.4958L122.045 53.1896L-7.45622 20.966L97.9308 -26.4958Z" fill="#035ED8" fill-opacity="0.29"/>
</svg>
